<svg width="67" height="66" viewBox="0 0 67 66" fill="none" xmlns="http://www.w3.org/2000/svg">
<path d="M54.3489 51.2145C59.7239 44.9718 61.9227 37.777 61.0466 29.6892C60.4315 24.0278 58.1737 19.0403 54.3657 14.5667C54.273 15.7631 54.1972 16.774 54.1214 17.7934C54.0624 17.7934 54.0034 17.785 53.9445 17.785C53.9445 16.7993 53.9108 15.8136 53.9613 14.8363C53.9866 14.2719 53.8265 13.8506 53.3969 13.4884C52.1079 12.3847 50.8442 11.2474 49.5383 10.1522C49.1002 9.78148 48.5779 9.50346 47.9966 9.12434C47.8702 11.2305 47.7438 13.2019 47.6259 15.1733C47.5585 15.1733 47.4911 15.1649 47.4153 15.1649C47.4153 14.9122 47.4153 14.6594 47.4153 14.4151C47.4153 12.7554 47.3984 11.0873 47.4237 9.42763C47.4321 8.95585 47.3142 8.62728 46.8677 8.44194C45.0732 7.67528 43.2787 6.90863 41.4758 6.14197C41.3242 6.07457 41.1472 6.06615 40.9198 6.0156C40.8439 7.34671 40.7681 8.61043 40.6923 9.87415C40.6333 9.87415 40.5659 9.87415 40.507 9.86572C40.4817 9.63825 40.4396 9.41078 40.4396 9.18332C40.4227 8.23132 40.4059 7.27932 40.4143 6.33574C40.4227 5.9482 40.2879 5.74601 39.9004 5.68703C38.0638 5.43429 36.2272 5.15627 34.399 4.87826C33.8682 4.80243 33.7334 5.0299 33.725 5.54381C33.7082 7.22034 33.6492 8.9053 33.5902 10.5818C33.5818 10.8598 33.5144 11.1294 33.4723 11.399C33.3206 11.2305 33.3038 11.0705 33.2953 10.9188C33.2532 9.11592 33.1858 7.32144 33.1774 5.51854C33.1774 4.98778 33.0005 4.84456 32.4866 4.86141C30.2456 4.93723 28.0551 5.27422 25.8815 5.81341C25.3339 5.9482 25.157 6.1841 25.1739 6.74856C25.1991 7.70056 25.1149 8.64413 25.0812 9.59613C24.9969 9.59613 24.9043 9.59613 24.82 9.58771C24.82 8.45879 24.82 7.33829 24.82 6.14197C22.1578 6.9676 19.7989 8.09652 17.6084 9.58771C17.4483 9.69723 17.3557 10.0258 17.3557 10.2533C17.3304 11.517 17.3472 12.7891 17.3388 14.0528C17.3388 14.2719 17.3135 14.4825 17.3051 14.7015C17.2461 14.7015 17.1872 14.7015 17.1366 14.6931C17.0355 13.1935 16.9429 11.6939 16.8333 10.11C14.7103 11.6265 12.9074 13.3283 11.3488 15.2829C11.2224 15.4429 11.1887 15.7209 11.1887 15.9484C11.1719 16.9004 11.1803 17.844 11.1803 18.796C11.1803 19.0487 11.155 19.3015 11.1466 19.5626C11.0961 19.5626 11.0539 19.5542 11.0034 19.5542C10.9276 18.4337 10.8433 17.3048 10.7591 16.0832C2.69656 26.4541 3.60644 41.0627 10.8012 49.8918C10.877 49.5043 10.9444 49.1252 11.0202 48.7461C11.0708 48.7461 11.1213 48.7461 11.1719 48.7461C11.1719 49.0494 11.1972 49.3526 11.1635 49.6475C11.1045 50.2372 11.2814 50.7175 11.7111 51.1387C12.6209 52.0486 13.4719 53.0174 14.407 53.8936C15.2242 54.6518 16.1341 55.3174 17.0018 56.0251C17.0608 55.9998 17.1198 55.9745 17.1703 55.9492C17.2546 54.4581 17.3388 52.9584 17.4146 51.4673C17.541 51.661 17.5747 51.8464 17.5747 52.0401C17.6084 53.3039 17.6505 54.5676 17.6505 55.8397C17.6505 56.261 17.7853 56.5306 18.156 56.758C19.9421 57.8701 21.8208 58.78 23.809 59.4792C23.927 59.5214 24.0618 59.5214 24.1966 59.5466C24.264 58.5694 24.3314 57.6342 24.3988 56.6991C24.542 56.8423 24.5757 56.9771 24.5841 57.1203C24.6178 57.8111 24.6852 58.502 24.6684 59.1928C24.66 59.6562 24.8537 59.8752 25.2834 59.9679C26.3618 60.2038 27.4317 60.4986 28.5185 60.6924C29.4368 60.8609 30.3804 60.9199 31.3239 61.021C31.3913 58.9906 31.4587 57.0866 31.5261 55.1826C31.6778 55.4016 31.6946 55.6123 31.7031 55.8229C31.7452 57.3815 31.7957 58.9485 31.821 60.5071C31.8294 60.9114 31.9642 61.0968 32.377 61.0631C34.281 60.9114 36.2019 60.8777 38.089 60.5913C40.1026 60.288 39.8835 60.6924 39.9088 58.4009C39.9172 57.9543 39.9088 57.5078 39.9088 57.0613C39.9762 57.0613 40.0352 57.0697 40.1026 57.0697C40.17 58.0639 40.2374 59.058 40.3048 60.0942C40.5491 60.0521 40.7428 60.0268 40.9282 59.9763C43.1608 59.3192 45.2754 58.4093 47.2889 57.2467C47.6512 57.036 47.7607 56.7917 47.7607 56.3873C47.7438 55.0983 47.7523 53.8178 47.7607 52.5288C47.7607 52.335 47.786 52.1412 47.8028 51.9475C47.8449 51.9475 47.8871 51.9559 47.9292 51.9559C48.0303 53.4808 48.1314 55.0057 48.2325 56.5474C48.342 56.5306 48.4094 56.539 48.4515 56.5053C50.3892 55.25 52.1416 53.7841 53.7002 52.0823C53.8434 51.9306 53.9108 51.661 53.9108 51.442C53.9192 50.431 53.8855 49.4285 53.8686 48.4175C53.8602 47.9626 53.8686 47.5076 53.8686 47.0527C53.936 47.0527 54.0119 47.0527 54.0793 47.0443C54.1888 48.4428 54.2646 49.8329 54.3489 51.2145Z" fill="white"/>
<path d="M66.0676 29.4364C66.076 28.9309 65.8654 28.8046 65.4273 28.8804C64.7871 28.9899 64.1468 29.1416 63.4981 29.1921C62.9336 29.2342 62.8241 29.5207 62.8325 30.0093C62.8494 32.0228 62.8578 34.0448 62.8241 36.0583C62.8157 36.5722 63.0347 36.7744 63.4896 36.8334C64.1384 36.9176 64.7871 36.9598 65.4189 37.1198C65.9918 37.263 66.0592 37.0271 66.0592 36.5554C66.0424 35.3927 66.0508 34.2217 66.0508 33.0591C66.0592 31.8459 66.0423 30.6412 66.0676 29.4364Z" fill="white"/>
<path d="M2.81467 36.7491C2.97474 36.7154 3.20221 36.4458 3.21063 36.2773C3.23591 34.1037 3.23591 31.9301 3.21063 29.7565C3.21063 29.5796 2.93261 29.2932 2.73042 29.2426C2.06486 29.0741 1.37403 28.9983 0.691623 28.8804C0.236686 28.8045 -0.0160577 28.9056 0.000791892 29.4533C0.034491 30.6159 0.00921667 31.7869 0.00921667 32.9495C0.00921667 34.1711 0.00921667 35.4011 0.00921667 36.6227C0.00921667 36.8755 -0.0329072 37.204 0.371482 37.1535C1.18869 37.0524 2.00589 36.926 2.81467 36.7491Z" fill="white"/>
<path d="M14.306 57.0614C14.3986 56.9181 14.3902 56.5727 14.2807 56.4632C12.7305 54.8793 11.1635 53.3123 9.57968 51.7537C9.47858 51.6526 9.21741 51.5768 9.12474 51.6358C8.33281 52.175 7.55773 52.7479 6.79108 53.3039C6.85005 53.4387 6.8669 53.5061 6.9006 53.5482C8.7035 55.3595 10.5148 57.1624 12.3093 58.9738C12.5957 59.2602 12.7727 59.1591 12.9749 58.8895C13.4298 58.2745 13.8932 57.6848 14.306 57.0614Z" fill="white"/>
<path d="M56.4214 51.8295C54.8797 53.3375 53.3632 54.8708 51.8299 56.3957C51.5856 56.64 51.5603 56.8338 51.7793 57.1034C52.1922 57.6342 52.5797 58.1902 52.9757 58.7294C53.3801 59.277 53.439 59.2854 53.9108 58.8136C55.3515 57.373 56.7921 55.9239 58.2411 54.4917C58.5866 54.1463 58.9825 53.843 59.4627 53.4386C58.5192 52.7562 57.7862 52.1918 57.0111 51.6779C56.8932 51.602 56.5478 51.7031 56.4214 51.8295Z" fill="white"/>
<path d="M9.6387 14.2044C11.1973 12.688 12.7306 11.1463 14.2555 9.5961C14.365 9.48658 14.4577 9.19171 14.3987 9.09904C13.8595 8.30711 13.2866 7.54045 12.7559 6.79907C10.7592 8.79574 8.83835 10.725 6.84167 12.7217C7.55778 13.244 8.27389 13.7916 9.02369 14.2971C9.15849 14.3814 9.51233 14.3224 9.6387 14.2044Z" fill="white"/>
<path d="M22.2589 60.9957C21.8798 60.8946 21.6608 60.9789 21.5091 61.3411C21.2311 61.9982 20.9531 62.647 20.6498 63.2957C20.4897 63.6495 20.5571 63.8349 20.9531 63.9444C23.3373 64.5762 25.7215 65.2081 28.0973 65.8568C28.4511 65.9579 28.5944 65.8231 28.6281 65.5198C28.7123 64.7531 28.7797 63.9865 28.8808 63.0092C28.7881 62.9334 28.6028 62.6975 28.3753 62.6385C26.3365 62.0741 24.2977 61.5517 22.2589 60.9957Z" fill="white"/>
<path d="M44.576 61.3579C44.416 60.9704 44.1885 60.8861 43.7841 60.9956C41.998 61.4927 40.2036 61.9645 38.4175 62.4447C37.238 62.7564 37.2212 62.7564 37.3054 63.9443C37.3476 64.5846 37.4487 65.2249 37.5329 65.9662C40.1951 65.2586 42.7226 64.5846 45.25 63.9022C45.5617 63.8179 45.587 63.6326 45.4606 63.363C45.1573 62.7059 44.854 62.0403 44.576 61.3579Z" fill="white"/>
<path d="M2.68 45.4183C3.3624 45.1065 4.04481 44.8033 4.74407 44.5168C5.08106 44.3736 5.16531 44.1967 5.06421 43.826C4.49975 41.7788 3.96899 39.7147 3.38768 37.6675C3.32028 37.44 3.05069 37.2631 2.96644 37.1704C1.98074 37.2715 1.21409 37.3305 0.455856 37.4484C0.346334 37.4653 0.169413 37.7686 0.203112 37.8949C0.834971 40.3129 1.4921 42.7308 2.13239 45.1487C2.21663 45.4941 2.36828 45.5531 2.68 45.4183Z" fill="white"/>
<path d="M37.5669 3.31971C39.69 3.90945 41.8299 4.47391 43.9613 5.02152C44.113 5.06364 44.4247 4.912 44.5005 4.76035C44.8375 4.09479 45.1071 3.38711 45.4188 2.71313C45.5873 2.35086 45.4862 2.15709 45.1155 2.06442C42.7566 1.43256 40.3976 0.809129 38.0387 0.168847C37.6512 0.0593244 37.4658 0.22782 37.4321 0.581661C37.3563 1.32304 37.2889 2.07285 37.2047 2.99115C37.2636 3.04169 37.39 3.26916 37.5669 3.31971Z" fill="white"/>
<path d="M65.5959 37.4486C64.8546 37.3306 64.1048 37.2716 63.3297 37.1874C62.8832 37.0779 62.7315 37.3643 62.6304 37.7518C62.0997 39.7738 61.5689 41.7957 61.0129 43.8177C60.9202 44.1462 60.9707 44.3484 61.2825 44.4832C61.9901 44.7865 62.6978 45.0983 63.3971 45.4184C63.7172 45.5616 63.8604 45.4774 63.9447 45.1404C64.585 42.7393 65.2421 40.3383 65.8655 37.9372C65.9077 37.794 65.7223 37.4654 65.5959 37.4486Z" fill="white"/>
<path d="M21.5937 4.7939C21.6611 4.9287 21.9475 5.07192 22.0908 5.0298C24.2307 4.48219 26.3621 3.91773 28.4936 3.32799C28.6789 3.27744 28.8137 3.0584 28.8811 2.991C28.7885 2.039 28.7211 1.2555 28.62 0.471993C28.5778 0.143427 28.3504 0.0676042 28.0555 0.151852C25.6797 0.792135 23.2955 1.43242 20.9197 2.0727C20.6164 2.15695 20.4816 2.30017 20.6333 2.62874C20.9534 3.35327 21.2483 4.09465 21.5937 4.7939Z" fill="white"/>
<path d="M45.1492 5.53528C47.0195 6.63892 48.8982 7.72572 50.7854 8.79567C50.9286 8.87991 51.2824 8.83779 51.392 8.71984C51.9901 8.04586 52.5377 7.32133 53.1864 6.5294C50.7433 5.12246 48.3675 3.74923 45.899 2.32544C45.5283 3.29429 45.1745 4.16204 44.8712 5.05507C44.8291 5.16459 45.006 5.44261 45.1492 5.53528Z" fill="white"/>
<path d="M61.0297 22.1154C61.5689 24.2131 62.1333 26.3109 62.7146 28.4003C62.7652 28.5772 63.0095 28.8299 63.1527 28.8215C63.9362 28.7794 64.7197 28.653 65.5032 28.5688C65.9076 28.5266 65.9835 28.3581 65.8739 27.979C65.5454 26.8248 65.2505 25.6538 64.9388 24.4996C64.5849 23.1685 64.2227 21.8458 63.8436 20.4136C62.9084 20.8264 62.0744 21.1718 61.2656 21.5678C61.1139 21.6267 60.9876 21.9553 61.0297 22.1154Z" fill="white"/>
<path d="M0.515024 28.5518C1.23955 28.6276 1.97251 28.6781 2.68862 28.8045C3.11828 28.8803 3.30362 28.7624 3.41315 28.358C3.96076 26.2771 4.52522 24.213 5.05598 22.1237C5.0981 21.9552 4.97173 21.6266 4.83693 21.5592C4.02815 21.1548 3.1941 20.8094 2.3432 20.4387C2.25053 20.5735 2.19998 20.6156 2.18313 20.6662C1.51757 23.1431 0.852015 25.6115 0.186458 28.0884C0.0937853 28.417 0.220157 28.5265 0.515024 28.5518Z" fill="white"/>
<path d="M50.7855 57.2214C48.8983 58.2913 47.0196 59.3865 45.1409 60.4649C44.8123 60.6503 44.7786 60.8693 44.9218 61.1979C45.183 61.8129 45.4357 62.4363 45.6464 63.0766C45.8233 63.5989 46.0676 63.6326 46.5141 63.363C47.9716 62.4953 49.4459 61.6612 50.9203 60.8103C51.6448 60.3891 52.3777 59.9594 53.1865 59.4876C52.5462 58.6873 51.9734 57.9459 51.3499 57.2382C51.2573 57.1287 50.9287 57.1371 50.7855 57.2214Z" fill="white"/>
<path d="M20.9533 60.4902C19.0662 59.3697 17.1622 58.2744 15.2497 57.1961C15.1149 57.1203 14.8116 57.1287 14.7358 57.2214C14.1208 57.9375 13.5395 58.6788 12.9666 59.3865C13.0256 59.496 13.034 59.5466 13.0593 59.5634C15.3003 60.8609 17.5413 62.1667 19.7823 63.4641C20.1024 63.6495 20.2456 63.5062 20.3551 63.2114C20.6163 62.5121 20.9196 61.8213 21.1555 61.1052C21.2145 60.9283 21.1049 60.5828 20.9533 60.4902Z" fill="white"/>
<path d="M60.5581 45.0392C59.4377 46.9432 58.3256 48.8556 57.2388 50.7849C57.163 50.9197 57.1714 51.223 57.2725 51.3072C57.9802 51.9222 58.7216 52.5035 59.5219 53.1522C60.9373 50.6922 62.3105 48.3164 63.7259 45.8732C62.7654 45.4941 61.9061 45.1487 61.0384 44.837C60.912 44.7864 60.634 44.9128 60.5581 45.0392Z" fill="white"/>
<path d="M15.4521 8.71984C17.0443 7.76784 18.6619 6.85797 20.271 5.93124C21.5769 5.17301 21.3663 5.44261 20.8945 4.15362C20.6754 3.55546 20.4227 2.96572 20.1615 2.32544C17.7099 3.7408 15.351 5.10561 12.8994 6.52098C13.4891 7.25393 14.0114 7.89422 14.5085 8.55135C14.7865 8.92204 15.0392 8.96416 15.4521 8.71984Z" fill="white"/>
<path d="M57.3822 14.5667C57.1042 14.7773 57.0873 15.0047 57.2474 15.2828C58.3342 17.1615 59.4125 19.0486 60.5162 20.9274C60.6004 21.0622 60.8953 21.2054 61.0301 21.1633C61.9063 20.8684 62.7572 20.5145 63.6418 20.1776C63.5912 20.0006 63.5912 19.9417 63.5575 19.8911C62.2854 17.6838 61.0132 15.4681 59.7495 13.2608C59.5726 12.9575 59.3873 12.9575 59.1345 13.1597C58.5616 13.6315 57.9803 14.1033 57.3822 14.5667Z" fill="white"/>
<path d="M8.66151 51.4589C8.93953 51.2398 8.9985 51.0039 8.81316 50.6922C7.73479 48.8303 6.66484 46.9685 5.56962 45.115C5.48537 44.9634 5.19893 44.7865 5.07256 44.8286C4.18796 45.1319 3.31178 45.4941 2.45245 45.8311C2.4693 45.9743 2.4693 46.0417 2.49458 46.0839C3.77514 48.308 5.05571 50.5322 6.33627 52.7563C6.52162 53.0764 6.71539 53.0259 6.95128 52.8321C7.51574 52.3688 8.0802 51.9054 8.66151 51.4589Z" fill="white"/>
<path d="M5.56134 20.9106C6.65656 19.0571 7.72651 17.1868 8.80488 15.325C8.99865 14.988 8.95652 14.7521 8.63638 14.5162C8.08035 14.1034 7.54116 13.6653 7.01882 13.2188C6.66498 12.9155 6.47121 12.9829 6.25217 13.3704C5.51921 14.6763 4.75256 15.9737 4.00276 17.2711C3.47199 18.1978 2.94966 19.1161 2.35992 20.1439C3.32877 20.5146 4.17968 20.8685 5.05585 21.1633C5.18222 21.2055 5.47709 21.0538 5.56134 20.9106Z" fill="white"/>
<path d="M29.2265 2.63727C29.2686 3.00796 29.454 3.15118 29.8078 3.15118C31.9646 3.15118 34.1129 3.14276 36.2696 3.15118C36.6656 3.15118 36.8172 2.96583 36.8594 2.5783C36.9352 1.91274 37.0531 1.25561 37.1795 0.598473C37.2637 0.15196 37.1121 -0.00811066 36.6572 0.00031411C35.4693 0.0171637 34.2898 0.00873888 33.1019 0.00873888C31.855 0.00873888 30.6166 0.0171637 29.3697 0.00873888C28.9822 0.00873888 28.8305 0.13511 28.9064 0.5395C29.0243 1.23033 29.1338 1.92959 29.2265 2.63727Z" fill="white"/>
<path d="M36.8509 63.4051C36.8088 62.9755 36.615 62.8238 36.2022 62.8322C34.0876 62.8407 31.9645 62.8407 29.8499 62.8322C29.4202 62.8322 29.2602 63.0344 29.218 63.4304C29.1422 64.0791 29.058 64.7278 28.9147 65.3597C28.7968 65.8652 28.9906 66 29.4539 66C30.6418 65.9915 31.8297 66 33.0176 66C34.1887 66 35.3513 66 36.5223 66C37.2047 66 37.2384 65.941 37.1289 65.2838C37.0278 64.6604 36.9099 64.037 36.8509 63.4051Z" fill="white"/>
<path d="M51.7879 9.53712C53.3296 11.1041 54.8798 12.6543 56.4384 14.196C56.5563 14.314 56.8512 14.4235 56.9523 14.3561C57.7442 13.8253 58.5109 13.2525 59.2523 12.7133C57.2556 10.7166 55.3263 8.79574 53.3296 6.79907C52.7905 7.54045 52.226 8.27341 51.7037 9.04006C51.6363 9.14116 51.6868 9.43603 51.7879 9.53712Z" fill="white"/>
<path d="M15.4014 41.7113C15.8142 41.7113 16.0248 41.9472 16.0248 42.4274V43.4131C16.0248 43.6743 15.9658 43.8681 15.8395 44.0113C15.7131 44.1545 15.5362 44.2219 15.3003 44.2219C15.056 44.2219 14.879 44.1545 14.7527 44.0113C14.6263 43.8681 14.5673 43.6743 14.5673 43.4131V41.9809C14.5673 41.6186 14.6431 41.3659 14.7948 41.2143C14.879 41.13 14.9549 41.0626 15.0223 41.0289C15.0812 40.9952 15.1823 40.9362 15.3256 40.8688C15.553 40.7677 15.7299 40.6751 15.8647 40.574V40.8267C15.7468 40.911 15.5867 40.9952 15.4014 41.0879C15.3003 41.1384 15.216 41.1721 15.1571 41.2058C15.1065 41.2395 15.0475 41.2817 14.9801 41.3491C14.8622 41.4586 14.8032 41.6439 14.8032 41.8967V42.082C14.9127 41.8377 15.1149 41.7113 15.4014 41.7113ZM15.7889 43.4384V42.4611C15.7889 42.0989 15.6457 41.9219 15.3508 41.9219C15.1823 41.9219 15.0475 41.9893 14.9464 42.1157C14.8453 42.2421 14.7948 42.419 14.7948 42.638V43.4384C14.7948 43.8259 14.9633 44.0197 15.3003 44.0197C15.6204 44.0197 15.7889 43.8259 15.7889 43.4384Z" fill="#0E0D0D"/>
<path d="M18.426 44.1714H18.207C18.1817 44.0871 18.1733 43.9607 18.1733 43.7838C18.0469 44.0703 17.8278 44.2219 17.5161 44.2219C17.3308 44.2219 17.1876 44.1714 17.078 44.0618C16.9769 43.9523 16.918 43.8091 16.918 43.6153C16.918 43.43 16.9685 43.2699 17.0696 43.152C17.1707 43.034 17.3392 42.9161 17.5835 42.815C17.8363 42.7054 17.9963 42.6296 18.0469 42.5791C18.1059 42.5201 18.1396 42.4443 18.1396 42.3432V42.2758C18.1396 42.1326 18.0974 42.0146 18.0216 41.9388C17.9374 41.8545 17.8278 41.8208 17.6846 41.8208C17.533 41.8208 17.415 41.863 17.3308 41.9472C17.2465 42.0315 17.196 42.1494 17.196 42.3011V42.36H16.9769V42.3179C16.9769 42.0989 17.0359 41.9304 17.1623 41.804C17.2887 41.686 17.4656 41.6187 17.6846 41.6187C17.9037 41.6187 18.0722 41.6776 18.1901 41.7956C18.3081 41.9135 18.367 42.0904 18.367 42.3095V43.5311C18.3755 43.8259 18.3923 44.0366 18.426 44.1714ZM17.5667 44.0197C17.7436 44.0197 17.8784 43.9523 17.9879 43.8259C18.0974 43.6996 18.148 43.5226 18.148 43.2952V42.7054C18.1059 42.7728 17.9374 42.8655 17.6593 42.9919C17.4824 43.0677 17.3561 43.152 17.2718 43.2446C17.196 43.3373 17.1539 43.4553 17.1539 43.59C17.1539 43.7248 17.1876 43.8259 17.2634 43.9018C17.3308 43.9776 17.4319 44.0197 17.5667 44.0197Z" fill="#0E0D0D"/>
<path d="M20.6501 42.7728V41.6608H20.886V44.1714H20.6501V42.9666H19.656V44.1629H19.4201V41.6523H19.656V42.7644H20.6501V42.7728Z" fill="#0E0D0D"/>
<path d="M23.1772 42.7728V41.6608H23.4131V44.1714H23.1772V42.9666H22.183V44.1629H21.9471V41.6523H22.183V42.7644H23.1772V42.7728Z" fill="#0E0D0D"/>
<path d="M24.4664 44.1713V41.6608H24.7023V42.6717H25.1993C25.7385 42.6717 25.9997 42.9161 25.9997 43.4131C25.9997 43.9186 25.7301 44.1629 25.1993 44.1629H24.4664V44.1713ZM25.1993 42.8824H24.7023V43.9607H25.1993C25.3931 43.9607 25.5363 43.9186 25.629 43.8344C25.7217 43.7501 25.7722 43.6069 25.7722 43.4215C25.7722 43.2446 25.7301 43.1098 25.6374 43.0256C25.5447 42.9329 25.4015 42.8824 25.1993 42.8824ZM26.6737 44.1713H26.4378V41.6608H26.6737V44.1713Z" fill="#0E0D0D"/>
<path d="M27.9458 43.7416L28.9399 41.6607H29.2011V44.1713H28.982V42.0904L27.9879 44.1713H27.7267V41.6607H27.9458V43.7416ZM27.9711 40.7593H28.148C28.1564 40.953 28.2659 41.0541 28.4597 41.0541C28.6535 41.0541 28.763 40.953 28.7798 40.7593H28.9483C28.9483 40.9109 28.8978 41.0289 28.8135 41.1131C28.7293 41.1974 28.6113 41.2395 28.4597 41.2395C28.3081 41.2395 28.1901 41.1974 28.1059 41.1131C28.0216 41.0289 27.9795 40.9109 27.9711 40.7593Z" fill="#0E0D0D"/>
<path d="M33.6832 44.1714H33.422L32.7733 42.8234L32.3689 43.3626V44.1629H32.1331V41.6523H32.3689V43.034L33.3883 41.6523H33.6495L32.9334 42.6043L33.6832 44.1714Z" fill="#0E0D0D"/>
<path d="M34.4667 43.4131V42.4106C34.4667 42.1494 34.5257 41.9556 34.6521 41.8124C34.7785 41.6692 34.9638 41.6018 35.1997 41.6018C35.4356 41.6018 35.6209 41.6692 35.7473 41.8124C35.8737 41.9556 35.9326 42.1494 35.9326 42.4106V43.4131C35.9326 43.6743 35.8737 43.8681 35.7473 44.0113C35.6209 44.1545 35.4356 44.2219 35.1997 44.2219C34.9638 44.2219 34.7785 44.1545 34.6521 44.0113C34.5257 43.8681 34.4667 43.6743 34.4667 43.4131ZM35.6968 43.4384V42.3937C35.6968 42.0062 35.5283 41.8124 35.1997 41.8124C34.8711 41.8124 34.7026 42.0062 34.7026 42.3937V43.4384C34.7026 43.8259 34.8711 44.0197 35.1997 44.0197C35.5283 44.0197 35.6968 43.8259 35.6968 43.4384Z" fill="#0E0D0D"/>
<path d="M38.0051 43.7922L38.7043 41.6608H39.075V44.1713H38.8391V41.9388L38.1062 44.1713H37.8955L37.1626 41.9388V44.1713H36.9435V41.6608H37.3142L38.0051 43.7922Z" fill="#0E0D0D"/>
<path d="M40.128 41.6608H41.577V44.1713H41.3412V41.863H40.3639V44.1713H40.128V41.6608Z" fill="#0E0D0D"/>
<path d="M42.6136 44.1798C42.5546 44.1798 42.5041 44.1713 42.4704 44.1629V43.9607C42.5041 43.9692 42.5462 43.9776 42.6052 43.9776C42.7231 43.9776 42.8074 43.9439 42.8579 43.8849C42.9085 43.8259 42.9422 43.708 42.9506 43.5479L43.0517 41.6692H44.2901V44.1798H44.0543V41.8714H43.2708L43.1781 43.5816C43.1697 43.7838 43.1191 43.9355 43.0349 44.0366C42.9338 44.1376 42.799 44.1798 42.6136 44.1798Z" fill="#0E0D0D"/>
<path d="M46.0169 41.6102C46.2528 41.6102 46.4381 41.6776 46.5645 41.8208C46.6909 41.9641 46.7583 42.1578 46.7583 42.419V42.9245H45.5198V43.4384C45.5198 43.8259 45.6883 44.0197 46.0169 44.0197C46.3539 44.0197 46.5224 43.8259 46.5224 43.4384V43.3794H46.7498V43.4216C46.7498 43.6827 46.6824 43.8765 46.5561 44.0197C46.4297 44.1629 46.2444 44.2303 46.0085 44.2303C45.7641 44.2303 45.5872 44.1629 45.4609 44.0281C45.3345 43.8933 45.2755 43.6911 45.2755 43.43V42.4274C45.2755 42.1663 45.3345 41.9641 45.4609 41.8293C45.5872 41.6945 45.7726 41.6102 46.0169 41.6102ZM45.5198 42.3937V42.7139H46.5308V42.3937C46.5308 42.0062 46.3623 41.8124 46.0253 41.8124C45.6883 41.8124 45.5198 42.0062 45.5198 42.3937Z" fill="#0E0D0D"/>
<path d="M49.2859 44.1714H49.0248L48.3761 42.8234L47.9717 43.3626V44.1629H47.7358V41.6523H47.9717V43.034L48.9911 41.6523H49.2522L48.5361 42.6043L49.2859 44.1714Z" fill="#0E0D0D"/>
<path d="M50.8022 44.2219C50.5663 44.2219 50.381 44.1545 50.263 44.0197C50.1367 43.8849 50.0777 43.6827 50.0777 43.43V42.4106C50.0777 41.8798 50.322 41.6187 50.8107 41.6187C51.2824 41.6187 51.5268 41.8798 51.5268 42.4106V42.478H51.2993V42.3937C51.2993 42.0146 51.1392 41.8208 50.8107 41.8208C50.4821 41.8208 50.322 42.0146 50.322 42.3937V43.4553C50.322 43.8344 50.4905 44.0281 50.8107 44.0281C51.1392 44.0281 51.2993 43.8344 51.2993 43.4553V43.3036H51.5268V43.4216C51.5183 43.9523 51.274 44.2219 50.8022 44.2219Z" fill="#0E0D0D"/>
<path d="M8.00391 37.0187V36.6143L8.56837 36.2436V27.7177L8.00391 27.3386V26.9595H13.5053V29.2089H12.7639L12.3427 27.802H10.068V31.0792H10.9863C11.4244 31.0792 11.8119 31.1129 12.1489 31.1803C12.4859 31.2477 12.7976 31.3656 13.0756 31.5341C13.3621 31.7026 13.5727 31.9301 13.7243 32.2334C13.876 32.5367 13.9518 32.8989 13.9518 33.337V34.6766C13.9518 35.0978 13.876 35.4685 13.7243 35.7718C13.5727 36.0751 13.3621 36.3194 13.084 36.4963C12.806 36.6732 12.5027 36.7996 12.1657 36.8839C11.8288 36.9681 11.4496 37.0018 11.0284 37.0018H8.00391V37.0187ZM10.0764 36.1509H11.0452C11.5339 36.1509 11.8877 36.0245 12.0983 35.7802C12.309 35.5359 12.4185 35.1736 12.4185 34.6934V33.3455C12.4185 32.8737 12.309 32.5114 12.0899 32.2755C11.8709 32.0312 11.517 31.9132 11.0368 31.9132H10.0848V36.1509H10.0764Z" fill="#0E0D0D"/>
<path d="M18.8215 34.4744V29.4869C18.8215 28.6782 19.0911 28.0295 19.6302 27.5408C20.1694 27.0522 20.894 26.8079 21.7954 26.8079C22.7053 26.8079 23.4382 27.0522 23.9774 27.5408C24.5166 28.0295 24.7946 28.6782 24.7946 29.4869V34.4744C24.7946 35.2832 24.525 35.9319 23.9774 36.4205C23.4298 36.9092 22.7053 37.1451 21.7954 37.1451C20.894 37.1451 20.1694 36.9007 19.6302 36.4121C19.0995 35.9235 18.8215 35.2748 18.8215 34.4744ZM20.3716 34.4828C20.3716 35.6286 20.8518 36.2015 21.8038 36.2015C22.2756 36.2015 22.6379 36.0414 22.8822 35.7128C23.1265 35.3843 23.2529 34.9799 23.2529 34.4828V29.4785C23.2529 28.973 23.1265 28.5602 22.8822 28.2401C22.6379 27.9199 22.2756 27.7514 21.8038 27.7514C20.8518 27.7514 20.3716 28.3243 20.3716 29.4785V34.4828Z" fill="#0E0D0D"/>
<path d="M29.4871 27.3807V26.9763H32.3683V27.3807L31.7028 27.8188V30.0177C31.7028 30.2873 31.7281 30.5316 31.7786 30.759C31.8291 30.9865 31.9134 31.1971 32.0313 31.3909C32.1409 31.5847 32.3009 31.7363 32.5031 31.8458C32.7053 31.9554 32.9412 32.0059 33.2108 32.0059H34.1291V27.7514L33.5647 27.3807V26.9763H36.1932V27.3807L35.6371 27.7514V36.1593L36.2943 36.6058V37.0018H33.472V36.6058L34.1375 36.1593V32.9832H33.2024C32.2841 32.9832 31.5427 32.7136 30.9867 32.1744C30.4306 31.6352 30.1526 30.9191 30.1526 30.0177V27.8188L29.4871 27.3807Z" fill="#0E0D0D"/>
<path d="M40.8354 37.0102V36.5974L41.4925 36.1593V27.7514L40.9281 27.3807V26.9595H43.565V27.3807L43.0006 27.7514V31.273C43.2533 31.273 43.4808 31.214 43.6661 31.096C43.8515 30.9781 44.0031 30.818 44.121 30.6242C44.239 30.4221 44.3401 30.203 44.4243 29.9587C44.5086 29.7144 44.5844 29.4532 44.6602 29.1836C44.7361 28.914 44.8119 28.6529 44.8961 28.4085C44.9804 28.1642 45.0899 27.9283 45.2247 27.7093C45.3595 27.4902 45.5196 27.3217 45.6965 27.2038C45.7892 27.1448 45.8818 27.0943 45.9829 27.0606C46.084 27.0269 46.202 26.9932 46.3452 26.9847C46.4884 26.9679 46.5895 26.9595 46.6653 26.9595C46.7412 26.9595 46.8675 26.9595 47.0529 26.9595C47.2298 26.9595 47.3477 26.9595 47.3814 26.9595V27.5155C47.1455 27.5071 46.977 27.5576 46.8675 27.6672C46.758 27.7767 46.6485 27.9536 46.5305 28.2063C46.4716 28.3411 46.3536 28.695 46.1851 29.2763C46.0166 29.8576 45.8313 30.3547 45.6459 30.7675C45.4606 31.1803 45.2668 31.4246 45.0646 31.492V31.5173C45.7218 31.5762 46.1851 32.2081 46.4547 33.4044L46.9265 35.4938C46.9855 35.7634 47.095 35.9824 47.2466 36.1509C47.4067 36.3194 47.5921 36.3868 47.8027 36.3362V36.8923C47.5836 37.0102 47.2466 37.0776 46.8001 37.0776C46.362 37.0776 46.0335 36.9597 45.8229 36.7238C45.6122 36.4879 45.4522 36.1425 45.3511 35.6791L44.9046 33.6993C44.795 33.1938 44.6265 32.7978 44.4075 32.5198C44.1884 32.2418 43.8599 32.0986 43.4302 32.0986H42.9837V36.1593L43.6493 36.589V37.0018H40.8354V37.0102Z" fill="#0E0D0D"/>
<path d="M50.7345 37.0102V36.5637L51.2737 36.2941C51.3579 35.9487 51.6949 34.5839 52.2931 32.2081C52.8828 29.8323 53.3209 28.0716 53.6158 26.9089H55.1407L57.5333 36.2436L58.0725 36.5637V37.0018H55.545V36.6311L55.9579 36.3194L55.4692 34.2975H52.7817L52.2931 36.3194L52.8154 36.5722V37.0018H50.7345V37.0102ZM52.9755 33.4803H55.3092L54.1465 28.6529L54.1297 28.6697L52.9755 33.4803Z" fill="#0E0D0D"/>
<path d="M16.7802 31.4111L16.0117 30.6426L15.2432 31.4111L16.0117 32.1795L16.7802 31.4111Z" fill="#0E0D0D"/>
<path d="M28.0784 31.4106L27.3099 30.6421L26.5415 31.4106L27.3099 32.179L28.0784 31.4106Z" fill="#0E0D0D"/>
<path d="M39.1726 31.4125L38.4041 30.644L37.6356 31.4125L38.4041 32.181L39.1726 31.4125Z" fill="#0E0D0D"/>
<path d="M49.9142 31.4123L49.1457 30.6438L48.3772 31.4123L49.1457 32.1807L49.9142 31.4123Z" fill="#0E0D0D"/>
</svg>
