<svg width="67" height="66" viewBox="0 0 67 66" fill="none" xmlns="http://www.w3.org/2000/svg">
<path d="M54.3489 51.2145C59.7239 44.9718 61.9227 37.777 61.0466 29.6892C60.4315 24.0278 58.1737 19.0403 54.3657 14.5667C54.273 15.7631 54.1972 16.774 54.1214 17.7934C54.0624 17.7934 54.0034 17.785 53.9445 17.785C53.9445 16.7993 53.9108 15.8136 53.9613 14.8363C53.9866 14.2719 53.8265 13.8506 53.3969 13.4884C52.1079 12.3847 50.8442 11.2474 49.5383 10.1522C49.1002 9.78148 48.5779 9.50346 47.9966 9.12434C47.8702 11.2305 47.7438 13.2019 47.6259 15.1733C47.5585 15.1733 47.4911 15.1649 47.4153 15.1649C47.4153 14.9122 47.4153 14.6594 47.4153 14.4151C47.4153 12.7554 47.3984 11.0873 47.4237 9.42763C47.4321 8.95585 47.3142 8.62728 46.8677 8.44194C45.0732 7.67528 43.2787 6.90863 41.4758 6.14197C41.3242 6.07457 41.1472 6.06615 40.9198 6.0156C40.8439 7.34671 40.7681 8.61043 40.6923 9.87415C40.6333 9.87415 40.5659 9.87415 40.507 9.86572C40.4817 9.63825 40.4396 9.41078 40.4396 9.18332C40.4227 8.23132 40.4059 7.27932 40.4143 6.33574C40.4227 5.9482 40.2879 5.74601 39.9004 5.68703C38.0638 5.43429 36.2272 5.15627 34.399 4.87826C33.8682 4.80243 33.7334 5.0299 33.725 5.54381C33.7082 7.22034 33.6492 8.9053 33.5902 10.5818C33.5818 10.8598 33.5144 11.1294 33.4723 11.399C33.3206 11.2305 33.3038 11.0705 33.2953 10.9188C33.2532 9.11592 33.1858 7.32144 33.1774 5.51854C33.1774 4.98778 33.0005 4.84456 32.4866 4.86141C30.2456 4.93723 28.0551 5.27422 25.8815 5.81341C25.3339 5.9482 25.157 6.1841 25.1739 6.74856C25.1991 7.70056 25.1149 8.64413 25.0812 9.59613C24.9969 9.59613 24.9043 9.59613 24.82 9.58771C24.82 8.45879 24.82 7.33829 24.82 6.14197C22.1578 6.9676 19.7989 8.09652 17.6084 9.58771C17.4483 9.69723 17.3557 10.0258 17.3557 10.2533C17.3304 11.517 17.3472 12.7891 17.3388 14.0528C17.3388 14.2719 17.3135 14.4825 17.3051 14.7015C17.2462 14.7015 17.1872 14.7015 17.1366 14.6931C17.0355 13.1935 16.9429 11.6939 16.8333 10.11C14.7103 11.6265 12.9074 13.3283 11.3488 15.2829C11.2224 15.4429 11.1887 15.7209 11.1887 15.9484C11.1719 16.9004 11.1803 17.844 11.1803 18.796C11.1803 19.0487 11.155 19.3015 11.1466 19.5626C11.0961 19.5626 11.0539 19.5542 11.0034 19.5542C10.9276 18.4337 10.8433 17.3048 10.7591 16.0832C2.69656 26.4541 3.60644 41.0627 10.8012 49.8918C10.877 49.5043 10.9444 49.1252 11.0202 48.7461C11.0708 48.7461 11.1213 48.7461 11.1719 48.7461C11.1719 49.0494 11.1972 49.3526 11.1635 49.6475C11.1045 50.2372 11.2814 50.7175 11.7111 51.1387C12.6209 52.0486 13.4719 53.0174 14.407 53.8936C15.2242 54.6518 16.1341 55.3174 17.0018 56.0251C17.0608 55.9998 17.1198 55.9745 17.1703 55.9492C17.2546 54.4581 17.3388 52.9585 17.4146 51.4673C17.541 51.661 17.5747 51.8464 17.5747 52.0401C17.6084 53.3039 17.6505 54.5676 17.6505 55.8397C17.6505 56.261 17.7853 56.5306 18.156 56.758C19.9421 57.8701 21.8208 58.78 23.809 59.4792C23.927 59.5214 24.0618 59.5214 24.1966 59.5466C24.264 58.5694 24.3314 57.6342 24.3988 56.6991C24.542 56.8423 24.5757 56.9771 24.5841 57.1203C24.6178 57.8111 24.6852 58.502 24.6684 59.1928C24.66 59.6562 24.8537 59.8752 25.2834 59.9679C26.3618 60.2038 27.4317 60.4986 28.5185 60.6924C29.4368 60.8609 30.3804 60.9199 31.3239 61.021C31.3913 58.9906 31.4587 57.0866 31.5261 55.1826C31.6778 55.4016 31.6946 55.6123 31.7031 55.8229C31.7452 57.3815 31.7957 58.9485 31.821 60.507C31.8294 60.9114 31.9642 61.0968 32.377 61.0631C34.281 60.9114 36.2019 60.8777 38.089 60.5913C40.1026 60.288 39.8835 60.6924 39.9088 58.4009C39.9172 57.9543 39.9088 57.5078 39.9088 57.0613C39.9762 57.0613 40.0352 57.0697 40.1026 57.0697C40.17 58.0639 40.2374 59.058 40.3048 60.0942C40.5491 60.0521 40.7429 60.0268 40.9282 59.9763C43.1608 59.3192 45.2754 58.4093 47.2889 57.2467C47.6512 57.036 47.7607 56.7917 47.7607 56.3873C47.7438 55.0983 47.7523 53.8178 47.7607 52.5288C47.7607 52.335 47.786 52.1412 47.8028 51.9475C47.8449 51.9475 47.8871 51.9559 47.9292 51.9559C48.0303 53.4808 48.1314 55.0057 48.2325 56.5474C48.342 56.5306 48.4094 56.539 48.4515 56.5053C50.3892 55.25 52.1416 53.7841 53.7002 52.0823C53.8434 51.9306 53.9108 51.661 53.9108 51.442C53.9192 50.431 53.8855 49.4285 53.8686 48.4175C53.8602 47.9626 53.8686 47.5076 53.8686 47.0527C53.936 47.0527 54.0119 47.0527 54.0793 47.0443C54.1888 48.4428 54.2646 49.8329 54.3489 51.2145Z" fill="white"/>
<path d="M66.0676 29.4364C66.076 28.9309 65.8654 28.8046 65.4273 28.8804C64.7871 28.9899 64.1468 29.1416 63.4981 29.1921C62.9336 29.2342 62.8241 29.5207 62.8325 30.0093C62.8494 32.0228 62.8578 34.0448 62.8241 36.0583C62.8157 36.5722 63.0347 36.7744 63.4896 36.8334C64.1384 36.9176 64.7871 36.9598 65.4189 37.1198C65.9918 37.263 66.0592 37.0271 66.0592 36.5554C66.0424 35.3927 66.0508 34.2217 66.0508 33.0591C66.0592 31.8459 66.0423 30.6412 66.0676 29.4364Z" fill="white"/>
<path d="M2.81467 36.7491C2.97474 36.7154 3.20221 36.4458 3.21063 36.2773C3.23591 34.1037 3.23591 31.9301 3.21063 29.7565C3.21063 29.5796 2.93261 29.2932 2.73042 29.2426C2.06486 29.0741 1.37403 28.9983 0.691623 28.8804C0.236686 28.8045 -0.0160577 28.9056 0.000791892 29.4533C0.034491 30.6159 0.00921667 31.7869 0.00921667 32.9495C0.00921667 34.1711 0.00921667 35.4011 0.00921667 36.6227C0.00921667 36.8755 -0.0329072 37.204 0.371482 37.1535C1.18869 37.0524 2.00589 36.926 2.81467 36.7491Z" fill="white"/>
<path d="M14.306 57.0614C14.3986 56.9181 14.3902 56.5727 14.2807 56.4632C12.7305 54.8793 11.1635 53.3123 9.57968 51.7537C9.47858 51.6526 9.21741 51.5768 9.12474 51.6358C8.33281 52.175 7.55773 52.7479 6.79108 53.3039C6.85005 53.4387 6.8669 53.5061 6.9006 53.5482C8.7035 55.3595 10.5148 57.1624 12.3093 58.9738C12.5957 59.2602 12.7727 59.1591 12.9749 58.8895C13.4298 58.2745 13.8932 57.6848 14.306 57.0614Z" fill="white"/>
<path d="M56.4214 51.8295C54.8797 53.3375 53.3632 54.8708 51.8299 56.3957C51.5856 56.64 51.5603 56.8338 51.7793 57.1034C52.1922 57.6342 52.5797 58.1902 52.9757 58.7294C53.3801 59.277 53.439 59.2854 53.9108 58.8136C55.3515 57.373 56.7921 55.9239 58.2411 54.4917C58.5866 54.1463 58.9825 53.843 59.4627 53.4386C58.5192 52.7562 57.7862 52.1918 57.0111 51.6779C56.8932 51.602 56.5478 51.7031 56.4214 51.8295Z" fill="white"/>
<path d="M9.6387 14.2044C11.1973 12.688 12.7306 11.1463 14.2555 9.5961C14.365 9.48658 14.4577 9.19171 14.3987 9.09904C13.8595 8.30711 13.2866 7.54045 12.7559 6.79907C10.7592 8.79574 8.83835 10.725 6.84167 12.7217C7.55778 13.244 8.27389 13.7916 9.02369 14.2971C9.15849 14.3814 9.51233 14.3224 9.6387 14.2044Z" fill="white"/>
<path d="M22.2589 60.9957C21.8798 60.8946 21.6608 60.9789 21.5091 61.3411C21.2311 61.9982 20.9531 62.647 20.6498 63.2957C20.4897 63.6495 20.5571 63.8349 20.9531 63.9444C23.3373 64.5762 25.7215 65.2081 28.0973 65.8568C28.4511 65.9579 28.5944 65.8231 28.6281 65.5198C28.7123 64.7531 28.7797 63.9865 28.8808 63.0092C28.7881 62.9334 28.6028 62.6975 28.3753 62.6385C26.3365 62.0741 24.2977 61.5517 22.2589 60.9957Z" fill="white"/>
<path d="M44.576 61.3579C44.416 60.9704 44.1885 60.8861 43.7841 60.9956C41.998 61.4927 40.2036 61.9645 38.4175 62.4447C37.238 62.7564 37.2212 62.7564 37.3054 63.9443C37.3476 64.5846 37.4487 65.2249 37.5329 65.9662C40.1951 65.2586 42.7226 64.5846 45.25 63.9022C45.5617 63.8179 45.587 63.6326 45.4606 63.363C45.1573 62.7059 44.854 62.0403 44.576 61.3579Z" fill="white"/>
<path d="M2.68 45.4183C3.3624 45.1065 4.04481 44.8033 4.74407 44.5168C5.08106 44.3736 5.16531 44.1967 5.06421 43.826C4.49975 41.7788 3.96899 39.7147 3.38768 37.6675C3.32028 37.44 3.05069 37.2631 2.96644 37.1704C1.98074 37.2715 1.21409 37.3305 0.455856 37.4484C0.346334 37.4653 0.169413 37.7686 0.203112 37.8949C0.834971 40.3129 1.4921 42.7308 2.13239 45.1487C2.21663 45.4941 2.36828 45.5531 2.68 45.4183Z" fill="white"/>
<path d="M37.5669 3.31971C39.69 3.90945 41.8299 4.47391 43.9613 5.02152C44.113 5.06364 44.4247 4.912 44.5005 4.76035C44.8375 4.09479 45.1071 3.38711 45.4188 2.71313C45.5873 2.35086 45.4862 2.15709 45.1155 2.06442C42.7566 1.43256 40.3976 0.809129 38.0387 0.168847C37.6512 0.0593245 37.4658 0.22782 37.4321 0.581661C37.3563 1.32304 37.2889 2.07285 37.2047 2.99115C37.2636 3.04169 37.39 3.26916 37.5669 3.31971Z" fill="white"/>
<path d="M65.5959 37.4486C64.8546 37.3306 64.1048 37.2716 63.3297 37.1874C62.8832 37.0779 62.7315 37.3643 62.6304 37.7518C62.0997 39.7738 61.5689 41.7957 61.0129 43.8177C60.9202 44.1462 60.9707 44.3484 61.2825 44.4832C61.9901 44.7865 62.6978 45.0982 63.3971 45.4184C63.7172 45.5616 63.8604 45.4774 63.9447 45.1404C64.585 42.7393 65.2421 40.3383 65.8655 37.9372C65.9077 37.794 65.7223 37.4654 65.5959 37.4486Z" fill="white"/>
<path d="M21.5937 4.7939C21.6611 4.9287 21.9475 5.07192 22.0908 5.0298C24.2307 4.48219 26.3621 3.91773 28.4936 3.32799C28.6789 3.27744 28.8137 3.0584 28.8811 2.991C28.7885 2.039 28.7211 1.2555 28.62 0.471993C28.5778 0.143427 28.3504 0.0676042 28.0555 0.151852C25.6797 0.792135 23.2955 1.43242 20.9197 2.0727C20.6164 2.15695 20.4816 2.30017 20.6333 2.62874C20.9534 3.35327 21.2483 4.09465 21.5937 4.7939Z" fill="white"/>
<path d="M45.1492 5.53528C47.0195 6.63892 48.8982 7.72572 50.7854 8.79567C50.9286 8.87991 51.2824 8.83779 51.392 8.71984C51.9901 8.04586 52.5377 7.32133 53.1864 6.5294C50.7433 5.12246 48.3675 3.74923 45.899 2.32544C45.5283 3.29429 45.1745 4.16204 44.8712 5.05507C44.8291 5.16459 45.006 5.44261 45.1492 5.53528Z" fill="white"/>
<path d="M61.0297 22.1154C61.5689 24.2131 62.1333 26.3109 62.7146 28.4003C62.7652 28.5772 63.0095 28.8299 63.1527 28.8215C63.9362 28.7794 64.7197 28.653 65.5032 28.5688C65.9076 28.5266 65.9835 28.3581 65.8739 27.979C65.5454 26.8248 65.2505 25.6538 64.9388 24.4996C64.5849 23.1685 64.2227 21.8458 63.8436 20.4136C62.9084 20.8264 62.0744 21.1718 61.2656 21.5678C61.1139 21.6267 60.9876 21.9553 61.0297 22.1154Z" fill="white"/>
<path d="M0.515024 28.5518C1.23955 28.6276 1.97251 28.6781 2.68862 28.8045C3.11828 28.8803 3.30362 28.7624 3.41315 28.358C3.96076 26.2771 4.52522 24.213 5.05598 22.1237C5.0981 21.9552 4.97173 21.6266 4.83693 21.5592C4.02815 21.1548 3.1941 20.8094 2.3432 20.4387C2.25053 20.5735 2.19998 20.6156 2.18313 20.6662C1.51757 23.1431 0.852015 25.6115 0.186458 28.0884C0.0937853 28.417 0.220157 28.5265 0.515024 28.5518Z" fill="white"/>
<path d="M50.7855 57.2214C48.8983 58.2913 47.0196 59.3865 45.1409 60.4649C44.8123 60.6503 44.7786 60.8693 44.9218 61.1979C45.183 61.8129 45.4357 62.4363 45.6464 63.0766C45.8233 63.5989 46.0676 63.6326 46.5141 63.363C47.9716 62.4953 49.4459 61.6612 50.9203 60.8103C51.6448 60.3891 52.3777 59.9594 53.1865 59.4876C52.5462 58.6873 51.9734 57.9459 51.3499 57.2382C51.2573 57.1287 50.9287 57.1371 50.7855 57.2214Z" fill="white"/>
<path d="M20.9533 60.4902C19.0662 59.3697 17.1622 58.2744 15.2497 57.1961C15.1149 57.1203 14.8116 57.1287 14.7358 57.2214C14.1208 57.9375 13.5395 58.6788 12.9666 59.3865C13.0256 59.496 13.034 59.5466 13.0593 59.5634C15.3003 60.8609 17.5413 62.1667 19.7823 63.4641C20.1024 63.6495 20.2456 63.5062 20.3551 63.2114C20.6163 62.5121 20.9196 61.8213 21.1555 61.1052C21.2145 60.9283 21.1049 60.5828 20.9533 60.4902Z" fill="white"/>
<path d="M60.5581 45.0392C59.4377 46.9432 58.3256 48.8556 57.2388 50.7849C57.163 50.9197 57.1714 51.223 57.2725 51.3072C57.9802 51.9222 58.7216 52.5035 59.5219 53.1522C60.9373 50.6922 62.3105 48.3164 63.7259 45.8732C62.7654 45.4941 61.9061 45.1487 61.0384 44.837C60.912 44.7864 60.634 44.9128 60.5581 45.0392Z" fill="white"/>
<path d="M15.4521 8.71984C17.0443 7.76784 18.6619 6.85797 20.271 5.93124C21.5769 5.17301 21.3663 5.44261 20.8945 4.15362C20.6754 3.55546 20.4227 2.96572 20.1615 2.32544C17.7099 3.7408 15.351 5.10561 12.8994 6.52098C13.4891 7.25393 14.0114 7.89422 14.5085 8.55135C14.7865 8.92204 15.0392 8.96416 15.4521 8.71984Z" fill="white"/>
<path d="M57.3822 14.5667C57.1042 14.7773 57.0873 15.0047 57.2474 15.2828C58.3342 17.1615 59.4125 19.0486 60.5162 20.9274C60.6004 21.0622 60.8953 21.2054 61.0301 21.1633C61.9063 20.8684 62.7572 20.5145 63.6418 20.1776C63.5912 20.0006 63.5912 19.9417 63.5575 19.8911C62.2854 17.6838 61.0132 15.4681 59.7495 13.2608C59.5726 12.9575 59.3873 12.9575 59.1345 13.1597C58.5616 13.6315 57.9803 14.1033 57.3822 14.5667Z" fill="white"/>
<path d="M8.66151 51.4589C8.93953 51.2398 8.9985 51.0039 8.81316 50.6922C7.73479 48.8303 6.66484 46.9685 5.56962 45.115C5.48537 44.9634 5.19893 44.7865 5.07256 44.8286C4.18796 45.1319 3.31178 45.4941 2.45245 45.8311C2.4693 45.9743 2.4693 46.0417 2.49458 46.0839C3.77514 48.308 5.05571 50.5322 6.33627 52.7563C6.52162 53.0764 6.71539 53.0259 6.95128 52.8321C7.51574 52.3688 8.0802 51.9054 8.66151 51.4589Z" fill="white"/>
<path d="M5.56134 20.9106C6.65656 19.0571 7.72651 17.1868 8.80488 15.325C8.99865 14.988 8.95652 14.7521 8.63638 14.5162C8.08035 14.1034 7.54116 13.6653 7.01882 13.2188C6.66498 12.9155 6.47121 12.9829 6.25217 13.3704C5.51921 14.6763 4.75256 15.9737 4.00276 17.2711C3.47199 18.1978 2.94966 19.1161 2.35992 20.1439C3.32877 20.5146 4.17968 20.8685 5.05585 21.1633C5.18222 21.2055 5.47709 21.0538 5.56134 20.9106Z" fill="white"/>
<path d="M29.2265 2.63727C29.2686 3.00796 29.454 3.15118 29.8078 3.15118C31.9646 3.15118 34.1129 3.14276 36.2696 3.15118C36.6656 3.15118 36.8172 2.96583 36.8594 2.5783C36.9352 1.91274 37.0531 1.25561 37.1795 0.598473C37.2637 0.15196 37.1121 -0.00811066 36.6572 0.00031411C35.4693 0.0171637 34.2898 0.00873888 33.1019 0.00873888C31.855 0.00873888 30.6166 0.0171637 29.3697 0.00873888C28.9822 0.00873888 28.8305 0.13511 28.9064 0.5395C29.0243 1.23033 29.1338 1.92959 29.2265 2.63727Z" fill="white"/>
<path d="M36.8509 63.4051C36.8088 62.9755 36.615 62.8238 36.2022 62.8322C34.0876 62.8407 31.9645 62.8407 29.8499 62.8322C29.4202 62.8322 29.2602 63.0344 29.218 63.4304C29.1422 64.0791 29.058 64.7278 28.9147 65.3597C28.7968 65.8652 28.9906 66 29.4539 66C30.6418 65.9915 31.8297 66 33.0176 66C34.1887 66 35.3513 66 36.5223 66C37.2047 66 37.2384 65.941 37.1289 65.2838C37.0278 64.6604 36.9099 64.037 36.8509 63.4051Z" fill="white"/>
<path d="M51.7879 9.53712C53.3296 11.1041 54.8798 12.6543 56.4384 14.196C56.5563 14.314 56.8512 14.4235 56.9523 14.3561C57.7442 13.8253 58.5109 13.2525 59.2523 12.7133C57.2556 10.7166 55.3263 8.79574 53.3296 6.79907C52.7905 7.54045 52.226 8.27341 51.7037 9.04006C51.6363 9.14116 51.6868 9.43603 51.7879 9.53712Z" fill="white"/>
<path d="M9.74 31.26V35.08L10.46 35.46V35.58H8V35.46L8.72 35.08V27.7488L8 27.3V27.18H10.46V27.3L9.74 27.7488V31.02L10.96 31.08L12.2 31.02V27.7488L11.48 27.3V27.18H13.94V27.3L13.22 27.7488V35.08L13.94 35.46V35.58H11.48V35.46L12.2 35.08V31.26H9.74Z" fill="black"/>
<path d="M20.5995 31.38C20.5995 32.116 20.5155 32.76 20.3475 33.312C20.1875 33.856 19.9715 34.312 19.6995 34.68C19.4355 35.04 19.1355 35.312 18.7995 35.496C18.4635 35.672 18.1235 35.76 17.7795 35.76C17.4355 35.76 17.0955 35.672 16.7595 35.496C16.4235 35.312 16.1195 35.04 15.8475 34.68C15.5835 34.312 15.3675 33.856 15.1995 33.312C15.0395 32.76 14.9595 32.116 14.9595 31.38C14.9595 30.644 15.0395 30.004 15.1995 29.46C15.3675 28.908 15.5835 28.452 15.8475 28.092C16.1195 27.724 16.4235 27.452 16.7595 27.276C17.0955 27.092 17.4355 27 17.7795 27C18.1235 27 18.4635 27.092 18.7995 27.276C19.1355 27.452 19.4355 27.724 19.6995 28.092C19.9715 28.452 20.1875 28.908 20.3475 29.46C20.5155 30.004 20.5995 30.644 20.5995 31.38ZM19.4595 31.38C19.4595 30.556 19.4075 29.876 19.3035 29.34C19.2075 28.796 19.0755 28.364 18.9075 28.044C18.7475 27.724 18.5752 27.56 18.3752 27.432C18.1752 27.304 17.9715 27.276 17.7795 27.276C17.5875 27.276 17.4215 27.304 17.2215 27.432C17.0215 27.56 16.8075 27.724 16.6395 28.044C16.4795 28.364 16.3475 28.796 16.2435 29.34C16.1475 29.876 16.0995 30.556 16.0995 31.38C16.0995 32.204 16.1475 32.888 16.2435 33.432C16.3475 33.968 16.4795 34.396 16.6395 34.716C16.8075 35.036 16.9915 35.26 17.1915 35.388C17.3915 35.516 17.5875 35.58 17.7795 35.58C17.9715 35.58 18.1675 35.516 18.3675 35.388C18.5675 35.26 18.7475 35.036 18.9075 34.716C19.0755 34.396 19.2075 33.968 19.3035 33.432C19.4075 32.888 19.4595 32.204 19.4595 31.38Z" fill="black"/>
<path d="M25.8172 31.74H24.6172V31.5H26.8372V32.4C26.8372 32.944 26.7652 33.424 26.6212 33.84C26.4852 34.256 26.3012 34.608 26.0692 34.896C25.8452 35.176 25.5852 35.392 25.2892 35.544C24.9932 35.688 24.6892 35.76 24.3772 35.76C24.0492 35.76 23.7212 35.672 23.3932 35.496C23.0652 35.312 22.7692 35.04 22.5052 34.68C22.2412 34.312 22.0252 33.856 21.8572 33.312C21.6972 32.76 21.6172 32.116 21.6172 31.38C21.6172 30.644 21.6972 30.004 21.8572 29.46C22.0252 28.908 22.2412 28.452 22.5052 28.092C22.7772 27.724 23.0812 27.452 23.4172 27.276C23.7532 27.092 24.0932 27 24.4372 27C24.6292 27 24.8012 27.032 24.9532 27.096C25.1132 27.16 25.2492 27.228 25.3612 27.3C25.4892 27.388 25.6012 27.488 25.6972 27.6C25.7612 27.48 25.8452 27.368 25.9492 27.264C26.0612 27.16 26.1772 27.092 26.2972 27.06H26.4772C26.4612 27.18 26.4492 27.3 26.4412 27.42C26.4332 27.532 26.4252 27.652 26.4172 27.78C26.4172 27.9 26.4172 28.02 26.4172 28.14C26.4172 28.276 26.4172 28.412 26.4172 28.548C26.4252 28.676 26.4332 28.796 26.4412 28.908C26.4492 29.036 26.4612 29.16 26.4772 29.28H26.2972C26.1132 28.616 25.8652 28.112 25.5532 27.768C25.2492 27.416 24.9172 27.24 24.5572 27.24C24.3332 27.24 24.1132 27.304 23.8972 27.432C23.6812 27.56 23.4892 27.784 23.3212 28.104C23.1532 28.416 23.0172 28.84 22.9132 29.376C22.8092 29.904 22.7572 30.572 22.7572 31.38C22.7572 32.204 22.8052 32.888 22.9012 33.432C23.0052 33.968 23.1372 34.396 23.2972 34.716C23.4572 35.036 23.6292 35.26 23.8132 35.388C24.0052 35.516 24.1932 35.58 24.3772 35.58C24.5532 35.58 24.7292 35.532 24.9052 35.436C25.0812 35.332 25.2332 35.16 25.3612 34.92C25.4972 34.672 25.6052 34.344 25.6852 33.936C25.7732 33.528 25.8172 33.016 25.8172 32.4V31.74Z" fill="black"/>
<path d="M28.7019 28.74C28.7019 29.068 28.7979 29.352 28.9899 29.592C29.1819 29.824 29.4219 30.04 29.7099 30.24C29.9979 30.44 30.3099 30.636 30.6459 30.828C30.9899 31.02 31.3059 31.24 31.5939 31.488C31.8819 31.728 32.1219 32.012 32.3139 32.34C32.5059 32.668 32.6019 33.068 32.6019 33.54C32.6019 33.852 32.5459 34.144 32.4339 34.416C32.3219 34.688 32.1619 34.924 31.9539 35.124C31.7539 35.324 31.5139 35.48 31.2339 35.592C30.9539 35.704 30.6499 35.76 30.3219 35.76C30.0179 35.76 29.7579 35.728 29.5419 35.664C29.3259 35.608 29.1459 35.54 29.0019 35.46C28.8339 35.372 28.6939 35.272 28.5819 35.16C28.5179 35.28 28.4299 35.392 28.3179 35.496C28.2139 35.6 28.1019 35.668 27.9819 35.7H27.8019C27.8099 35.588 27.8179 35.468 27.8259 35.34C27.8339 35.236 27.8419 35.12 27.8499 34.992C27.8579 34.864 27.8619 34.74 27.8619 34.62C27.8619 34.484 27.8579 34.352 27.8499 34.224C27.8419 34.088 27.8339 33.964 27.8259 33.852C27.8179 33.724 27.8099 33.6 27.8019 33.48H27.9819C28.1659 34.144 28.4299 34.652 28.7739 35.004C29.1259 35.348 29.6019 35.52 30.2019 35.52C30.6819 35.52 31.0699 35.368 31.3659 35.064C31.6699 34.752 31.8219 34.324 31.8219 33.78C31.8219 33.452 31.7259 33.172 31.5339 32.94C31.3419 32.7 31.1019 32.48 30.8139 32.28C30.5259 32.08 30.2099 31.884 29.8659 31.692C29.5299 31.5 29.2179 31.284 28.9299 31.044C28.6419 30.796 28.4019 30.508 28.2099 30.18C28.0179 29.852 27.9219 29.452 27.9219 28.98C27.9219 28.708 27.9739 28.452 28.0779 28.212C28.1819 27.972 28.3259 27.764 28.5099 27.588C28.6939 27.404 28.9099 27.26 29.1579 27.156C29.4059 27.052 29.6739 27 29.9619 27C30.2019 27 30.4139 27.032 30.5979 27.096C30.7819 27.16 30.9379 27.228 31.0659 27.3C31.2099 27.388 31.3419 27.488 31.4619 27.6C31.5259 27.48 31.6099 27.368 31.7139 27.264C31.8259 27.16 31.9419 27.092 32.0619 27.06H32.2419C32.2259 27.18 32.2139 27.3 32.2059 27.42C32.1979 27.532 32.1899 27.652 32.1819 27.78C32.1819 27.9 32.1819 28.02 32.1819 28.14C32.1819 28.276 32.1819 28.412 32.1819 28.548C32.1899 28.676 32.1979 28.796 32.2059 28.908C32.2139 29.036 32.2259 29.16 32.2419 29.28H32.0619C31.8779 28.616 31.6219 28.112 31.2939 27.768C30.9659 27.416 30.5619 27.24 30.0819 27.24C29.6899 27.24 29.3619 27.376 29.0979 27.648C28.8339 27.92 28.7019 28.284 28.7019 28.74Z" fill="black"/>
<path d="M35.24 31.26V35.124L35.96 35.46V35.58H33.5V35.46L34.22 35.124V27.744L33.5 27.3V27.18H35.96V27.3L35.24 27.744V31.02L36.46 31.08L37.7 31.02V27.744L36.98 27.3V27.18H39.44V27.3L38.72 27.744V35.124L39.44 35.46V35.58H36.98V35.46L37.7 35.124V31.26H35.24Z" fill="black"/>
<path d="M44.2875 35.28C44.2875 34.944 44.7275 34.692 44.8635 34.404C44.9995 34.116 45.1715 33.868 45.3795 33.66H45.4995C45.4835 33.764 45.4715 33.872 45.4635 33.984C45.4555 34.08 45.4475 34.184 45.4395 34.296C45.4395 34.408 45.4395 34.516 45.4395 34.62C45.4395 34.772 45.4395 34.908 45.4395 35.028C45.4475 35.14 45.4555 35.24 45.4635 35.328C45.4715 35.424 45.4835 35.508 45.4995 35.58H40.5195V35.46L41.2395 35.28V27.48L40.5195 27.3V27.18H45.3795C45.3635 27.252 45.3515 27.336 45.3435 27.432C45.3355 27.52 45.3275 27.624 45.3195 27.744C45.3195 27.856 45.3195 27.988 45.3195 28.14C45.3195 28.252 45.3195 28.364 45.3195 28.476C45.3275 28.58 45.3355 28.68 45.3435 28.776C45.3515 28.888 45.3635 28.996 45.3795 29.1H45.2595C45.0515 28.892 44.8795 28.644 44.7435 28.356C44.6075 28.068 44.2875 27.768 44.2875 27.432L42.2595 27.42V31.02L42.96 31.08L43.9395 29.94H44.0595V32.34H43.9395L42.96 31.26H42.2595V35.34L44.2875 35.28Z" fill="black"/>
<path d="M50.0581 33.12H47.5981L46.9981 35.16L47.7781 35.46V35.58H45.9781V35.46L46.7581 35.16L49.0981 27H49.2781L51.7981 35.28L52.5181 35.46V35.58H49.9981V35.46L50.7181 35.28L50.0581 33.12ZM47.6581 32.892H49.9861L48.7861 28.92L47.6581 32.892Z" fill="black"/>
<path d="M54.9125 27.18C55.4405 27.18 55.9245 27.276 56.3645 27.468C56.8125 27.66 57.2005 27.936 57.5285 28.296C57.8565 28.656 58.1125 29.096 58.2965 29.616C58.4805 30.136 58.5725 30.724 58.5725 31.38C58.5725 32.044 58.4805 32.636 58.2965 33.156C58.1125 33.676 57.8565 34.116 57.5285 34.476C57.2005 34.836 56.8125 35.112 56.3645 35.304C55.9245 35.488 55.4405 35.58 54.9125 35.58H52.8125V35.46L53.5325 35.28V27.48L52.8125 27.3V27.18H54.9125ZM54.5525 27.42V35.34H54.9125C55.2565 35.34 55.5805 35.268 55.8845 35.124C56.1965 34.972 56.4645 34.736 56.6885 34.416C56.9205 34.096 57.1005 33.688 57.2285 33.192C57.3645 32.688 57.4325 32.084 57.4325 31.38C57.4325 30.676 57.3645 30.076 57.2285 29.58C57.1005 29.076 56.9205 28.664 56.6885 28.344C56.4645 28.024 56.1965 27.792 55.8845 27.648C55.5805 27.496 55.2565 27.42 54.9125 27.42H54.5525Z" fill="black"/>
<path d="M14.7802 31.4111L14.0117 30.6426L13.2432 31.4111L14.0117 32.1795L14.7802 31.4111Z" fill="#0E0D0D"/>
<path d="M34.0784 31.4106L33.3099 30.6421L32.5415 31.4106L33.3099 32.179L34.0784 31.4106Z" fill="#0E0D0D"/>
<path d="M46.9142 31.4123L46.1457 30.6438L45.3772 31.4123L46.1457 32.1807L46.9142 31.4123Z" fill="#0E0D0D"/>
<path d="M17 40H17.4114V41.36H17.4286C17.5848 41.1695 17.7924 41.0743 18.0514 41.0743C18.3448 41.0743 18.5638 41.1905 18.7086 41.4229C18.8571 41.6552 18.9314 42.0229 18.9314 42.5257C18.9314 43.04 18.8324 43.4229 18.6343 43.6743C18.44 43.9257 18.1638 44.0514 17.8057 44.0514C17.6305 44.0514 17.4705 44.0324 17.3257 43.9943C17.181 43.9524 17.0724 43.9048 17 43.8514V40ZM17.4114 43.5829C17.4648 43.6133 17.5295 43.6381 17.6057 43.6571C17.6857 43.6724 17.7695 43.68 17.8571 43.68C18.0552 43.68 18.2114 43.5867 18.3257 43.4C18.4438 43.2095 18.5029 42.9181 18.5029 42.5257C18.5029 42.3619 18.4914 42.2152 18.4686 42.0857C18.4495 41.9524 18.4171 41.8381 18.3714 41.7429C18.3295 41.6476 18.2724 41.5752 18.2 41.5257C18.1314 41.4724 18.0476 41.4457 17.9486 41.4457C17.8114 41.4457 17.6971 41.4876 17.6057 41.5714C17.5181 41.6514 17.4533 41.7619 17.4114 41.9029V43.5829Z" fill="#4B4848"/>
<path d="M19.9062 41.3143C20.0167 41.2457 20.1501 41.1924 20.3062 41.1543C20.4662 41.1162 20.6339 41.0971 20.8091 41.0971C20.9691 41.0971 21.0967 41.1219 21.192 41.1714C21.291 41.2171 21.3672 41.2819 21.4205 41.3657C21.4777 41.4457 21.5139 41.539 21.5291 41.6457C21.5482 41.7486 21.5577 41.8571 21.5577 41.9714C21.5577 42.2 21.552 42.4229 21.5405 42.64C21.5329 42.8571 21.5291 43.0629 21.5291 43.2571C21.5291 43.4019 21.5329 43.5371 21.5405 43.6629C21.552 43.7848 21.571 43.901 21.5977 44.0114H21.2834L21.1863 43.6743H21.1634C21.1063 43.7733 21.0224 43.859 20.912 43.9314C20.8015 44.0038 20.6529 44.04 20.4662 44.04C20.2605 44.04 20.091 43.9695 19.9577 43.8286C19.8282 43.6838 19.7634 43.4857 19.7634 43.2343C19.7634 43.0705 19.7901 42.9333 19.8434 42.8229C19.9005 42.7124 19.9786 42.6229 20.0777 42.5543C20.1805 42.4857 20.3005 42.4381 20.4377 42.4114C20.5786 42.381 20.7348 42.3657 20.9062 42.3657C20.9443 42.3657 20.9824 42.3657 21.0205 42.3657C21.0586 42.3657 21.0986 42.3676 21.1405 42.3714C21.152 42.2533 21.1577 42.1486 21.1577 42.0571C21.1577 41.84 21.1253 41.6876 21.0605 41.6C20.9958 41.5124 20.8777 41.4686 20.7062 41.4686C20.5996 41.4686 20.4834 41.4857 20.3577 41.52C20.232 41.5505 20.1272 41.5905 20.0434 41.64L19.9062 41.3143ZM21.1463 42.6971C21.1082 42.6933 21.0701 42.6914 21.032 42.6914C20.9939 42.6876 20.9558 42.6857 20.9177 42.6857C20.8263 42.6857 20.7367 42.6933 20.6491 42.7086C20.5615 42.7238 20.4834 42.7505 20.4148 42.7886C20.3462 42.8267 20.291 42.8781 20.2491 42.9429C20.211 43.0076 20.192 43.0895 20.192 43.1886C20.192 43.341 20.2282 43.459 20.3005 43.5429C20.3767 43.6267 20.4739 43.6686 20.592 43.6686C20.752 43.6686 20.8758 43.6305 20.9634 43.5543C21.051 43.4781 21.112 43.3943 21.1463 43.3029V42.6971Z" fill="#4B4848"/>
<path d="M22.3942 41.1429H22.7428V40.5771L23.1542 40.4457V41.1429H23.7713V41.5143H23.1542V43.2171C23.1542 43.3848 23.1732 43.5067 23.2113 43.5829C23.2532 43.6552 23.3199 43.6914 23.4113 43.6914C23.4875 43.6914 23.5523 43.6838 23.6056 43.6686C23.6628 43.6495 23.7237 43.6267 23.7885 43.6L23.8685 43.9257C23.7847 43.9676 23.6913 44 23.5885 44.0229C23.4894 44.0495 23.3847 44.0629 23.2742 44.0629C23.0837 44.0629 22.9466 44.0019 22.8628 43.88C22.7828 43.7543 22.7428 43.5524 22.7428 43.2743V41.5143H22.3942V41.1429Z" fill="#4B4848"/>
<path d="M26.1736 44V42.2629C26.1736 41.9962 26.1412 41.7943 26.0764 41.6571C26.0155 41.5162 25.8917 41.4457 25.705 41.4457C25.5717 41.4457 25.4498 41.4933 25.3393 41.5886C25.2326 41.6838 25.1602 41.8038 25.1221 41.9486V44H24.7107V40H25.1221V41.4114H25.1393C25.2155 41.3124 25.3088 41.2324 25.4193 41.1714C25.5336 41.1067 25.6745 41.0743 25.8421 41.0743C25.9679 41.0743 26.0764 41.0914 26.1679 41.1257C26.2631 41.16 26.3412 41.219 26.4021 41.3029C26.4631 41.3867 26.5088 41.499 26.5393 41.64C26.5698 41.7771 26.585 41.9486 26.585 42.1543V44H26.1736Z" fill="#4B4848"/>
<path d="M30.9298 43.8571C30.8346 43.9295 30.726 43.9829 30.6041 44.0171C30.4822 44.0514 30.3546 44.0686 30.2212 44.0686C30.0384 44.0686 29.8841 44.0343 29.7584 43.9657C29.6327 43.8933 29.5298 43.7924 29.4498 43.6629C29.3736 43.5295 29.3165 43.3714 29.2784 43.1886C29.2441 43.0019 29.227 42.7962 29.227 42.5714C29.227 42.0838 29.3127 41.7124 29.4841 41.4571C29.6593 41.2019 29.9089 41.0743 30.2327 41.0743C30.3812 41.0743 30.5089 41.0876 30.6155 41.1143C30.7222 41.141 30.8136 41.1752 30.8898 41.2171L30.7755 41.5771C30.6232 41.4895 30.4574 41.4457 30.2784 41.4457C30.0727 41.4457 29.9165 41.5371 29.8098 41.72C29.707 41.899 29.6555 42.1829 29.6555 42.5714C29.6555 42.7276 29.667 42.8743 29.6898 43.0114C29.7127 43.1486 29.7508 43.2686 29.8041 43.3714C29.8574 43.4705 29.926 43.5505 30.0098 43.6114C30.0936 43.6686 30.1984 43.6971 30.3241 43.6971C30.4232 43.6971 30.5146 43.68 30.5984 43.6457C30.686 43.6114 30.7565 43.5714 30.8098 43.5257L30.9298 43.8571Z" fill="#4B4848"/>
<path d="M31.6261 42.5714C31.6261 42.0571 31.7137 41.68 31.8889 41.44C32.068 41.1962 32.3213 41.0743 32.6489 41.0743C32.9994 41.0743 33.2565 41.1981 33.4204 41.4457C33.588 41.6933 33.6718 42.0686 33.6718 42.5714C33.6718 43.0895 33.5823 43.4686 33.4032 43.7086C33.2242 43.9486 32.9727 44.0686 32.6489 44.0686C32.2985 44.0686 32.0394 43.9448 31.8718 43.6971C31.708 43.4495 31.6261 43.0743 31.6261 42.5714ZM32.0546 42.5714C32.0546 42.739 32.0642 42.8914 32.0832 43.0286C32.1061 43.1657 32.1404 43.2838 32.1861 43.3829C32.2356 43.4819 32.2985 43.56 32.3746 43.6171C32.4508 43.6705 32.5423 43.6971 32.6489 43.6971C32.847 43.6971 32.9956 43.6095 33.0946 43.4343C33.1937 43.2552 33.2432 42.9676 33.2432 42.5714C33.2432 42.4076 33.2318 42.2571 33.2089 42.12C33.1899 41.979 33.1556 41.859 33.1061 41.76C33.0604 41.661 32.9994 41.5848 32.9232 41.5314C32.847 41.4743 32.7556 41.4457 32.6489 41.4457C32.4546 41.4457 32.3061 41.5352 32.2032 41.7143C32.1042 41.8933 32.0546 42.179 32.0546 42.5714Z" fill="#4B4848"/>
<path d="M36.0126 44V42.3029C36.0126 42.1505 36.0069 42.021 35.9954 41.9143C35.9878 41.8038 35.9688 41.7143 35.9383 41.6457C35.9078 41.5771 35.8659 41.5276 35.8126 41.4971C35.7593 41.4629 35.6888 41.4457 35.6012 41.4457C35.4716 41.4457 35.3612 41.4971 35.2697 41.6C35.1821 41.699 35.1212 41.8133 35.0869 41.9429V44H34.6754V41.1429H34.9669L35.0412 41.4457H35.0583C35.1383 41.3352 35.2335 41.2457 35.344 41.1771C35.4545 41.1086 35.5954 41.0743 35.7669 41.0743C35.9116 41.0743 36.0297 41.1067 36.1212 41.1714C36.2164 41.2324 36.2907 41.3429 36.344 41.5029C36.4126 41.3695 36.5097 41.2648 36.6354 41.1886C36.765 41.1124 36.9059 41.0743 37.0583 41.0743C37.184 41.0743 37.2907 41.0914 37.3783 41.1257C37.4697 41.1562 37.5421 41.2133 37.5954 41.2971C37.6526 41.3771 37.6945 41.4857 37.7212 41.6229C37.7478 41.7562 37.7612 41.9257 37.7612 42.1314V44H37.3497V42.1829C37.3497 41.9352 37.325 41.7505 37.2754 41.6286C37.2297 41.5067 37.1212 41.4457 36.9497 41.4457C36.805 41.4457 36.6888 41.4914 36.6012 41.5829C36.5174 41.6705 36.4583 41.7905 36.424 41.9429V44H36.0126Z" fill="#4B4848"/>
<path d="M38.8547 41.1429H39.1461L39.209 41.4514H39.2318C39.3728 41.2 39.5937 41.0743 39.8947 41.0743C40.1956 41.0743 40.4204 41.1867 40.569 41.4114C40.7214 41.6362 40.7975 42.0038 40.7975 42.5143C40.7975 42.7543 40.7728 42.9714 40.7233 43.1657C40.6737 43.3562 40.6033 43.52 40.5118 43.6571C40.4204 43.7905 40.308 43.8933 40.1747 43.9657C40.0452 44.0343 39.9004 44.0686 39.7404 44.0686C39.6299 44.0686 39.5423 44.061 39.4775 44.0457C39.4128 44.0343 39.3423 44.0076 39.2661 43.9657V45.1429H38.8547V41.1429ZM39.2661 43.5486C39.3195 43.5943 39.3785 43.6305 39.4433 43.6571C39.5118 43.6838 39.6014 43.6971 39.7118 43.6971C39.9137 43.6971 40.0737 43.5943 40.1918 43.3886C40.3099 43.1829 40.369 42.8895 40.369 42.5086C40.369 42.3486 40.3575 42.2038 40.3347 42.0743C40.3156 41.9448 40.2833 41.8343 40.2375 41.7429C40.1918 41.6476 40.1328 41.5752 40.0604 41.5257C39.9918 41.4724 39.9061 41.4457 39.8033 41.4457C39.5252 41.4457 39.3461 41.6152 39.2661 41.9543V43.5486Z" fill="#4B4848"/>
<path d="M42.2351 43.32C42.2351 43.4533 42.2522 43.5486 42.2865 43.6057C42.3246 43.6629 42.376 43.6914 42.4408 43.6914C42.5208 43.6914 42.6141 43.6705 42.7208 43.6286L42.7608 43.96C42.7113 43.9905 42.6408 44.0152 42.5494 44.0343C42.4618 44.0533 42.3818 44.0629 42.3094 44.0629C42.1646 44.0629 42.0465 44.019 41.9551 43.9314C41.8675 43.84 41.8237 43.6819 41.8237 43.4571V40H42.2351V43.32Z" fill="#4B4848"/>
<path d="M45.2945 43.8057C45.2031 43.8895 45.0869 43.9543 44.9459 44C44.805 44.0457 44.6564 44.0686 44.5002 44.0686C44.3212 44.0686 44.165 44.0343 44.0317 43.9657C43.9021 43.8933 43.7936 43.7924 43.7059 43.6629C43.6221 43.5295 43.5593 43.3714 43.5174 43.1886C43.4793 43.0057 43.4602 42.8 43.4602 42.5714C43.4602 42.0838 43.5497 41.7124 43.7288 41.4571C43.9078 41.2019 44.1612 41.0743 44.4888 41.0743C44.5955 41.0743 44.7002 41.0876 44.8031 41.1143C44.9097 41.141 45.005 41.1943 45.0888 41.2743C45.1726 41.3543 45.2393 41.4667 45.2888 41.6114C45.3421 41.7562 45.3688 41.9448 45.3688 42.1771C45.3688 42.2419 45.365 42.3124 45.3574 42.3886C45.3536 42.461 45.3478 42.5371 45.3402 42.6171H43.8888C43.8888 42.781 43.9021 42.9295 43.9288 43.0629C43.9555 43.1962 43.9974 43.3105 44.0545 43.4057C44.1117 43.4971 44.184 43.5695 44.2717 43.6229C44.3631 43.6724 44.4755 43.6971 44.6088 43.6971C44.7117 43.6971 44.8126 43.6781 44.9117 43.64C45.0145 43.6019 45.0926 43.5562 45.1459 43.5029L45.2945 43.8057ZM44.9745 42.2743C44.9821 41.9886 44.9421 41.779 44.8545 41.6457C44.7669 41.5124 44.6469 41.4457 44.4945 41.4457C44.3193 41.4457 44.1802 41.5124 44.0774 41.6457C43.9745 41.779 43.9136 41.9886 43.8945 42.2743H44.9745Z" fill="#4B4848"/>
<path d="M46.886 42.5371L46.1317 41.1429H46.6231L47.046 41.96L47.1603 42.28L47.2803 41.96L47.7146 41.1429H48.166L47.406 42.5143L48.2117 44H47.7431L47.2631 43.1029L47.1374 42.76L47.006 43.1029L46.526 44H46.0746L46.886 42.5371Z" fill="#4B4848"/>
</svg>
